<?xml version="1.0" standalone="no"?>
<!DOCTYPE svg PUBLIC "-//W3C//DTD SVG 20010904//EN"
 "http://www.w3.org/TR/2001/REC-SVG-20010904/DTD/svg10.dtd">
<svg version="1.0" xmlns="http://www.w3.org/2000/svg"
 width="391.000000pt" height="391.000000pt" viewBox="0 0 391.000000 391.000000"
 preserveAspectRatio="xMidYMid meet">
<metadata>
Created by potrace 1.11, written by Peter Selinger 2001-2013
</metadata>
<g transform="translate(0.000000,391.000000) scale(0.100000,-0.100000)"
fill="#000000" stroke="none">
<path d="M370 2660 l0 -290 168 0 168 0 414 -360 c388 -335 415 -361 418 -395
l3 -35 -151 0 -150 0 2 -308 3 -307 713 -3 712 -2 0 310 0 310 -145 0 -145 0
0 39 0 40 416 355 416 356 164 0 164 0 0 290 0 290 -655 0 -655 0 0 -289 0
-290 35 -3 35 -3 -91 -77 -91 -78 -86 78 -87 77 58 3 57 3 0 289 0 290 -845 0
-845 0 0 -290z m1590 0 l0 -179 -149 -3 -149 -3 221 -195 c122 -107 229 -194
237 -194 9 0 118 87 242 194 l226 195 -129 3 -129 3 0 179 0 180 555 0 555 0
0 -180 0 -180 -132 0 -133 -1 -450 -387 -450 -388 0 -115 0 -114 143 -3 142
-3 0 -199 0 -200 -605 0 -605 0 0 200 0 199 148 3 147 3 3 106 3 106 -457 397
-457 396 -134 0 -133 0 0 180 0 180 745 0 745 0 0 -180z"/>
<path d="M520 2728 c0 -35 3 -93 7 -130 l6 -68 113 0 113 0 463 -402 c255
-221 466 -407 470 -413 4 -5 8 -74 8 -152 l0 -143 -150 0 -150 0 0 -150 0
-150 555 0 555 0 0 150 0 150 -145 0 -145 0 0 154 0 155 468 400 467 401 113
0 112 0 0 130 0 130 -500 0 -500 0 0 -130 0 -130 176 0 175 0 -297 -256 c-164
-141 -303 -258 -310 -261 -7 -3 -146 113 -309 256 l-295 261 195 0 195 0 0
130 0 130 -695 0 -695 0 0 -62z"/>
</g>
</svg>
